<?xml version="1.0" standalone="no"?>
<!DOCTYPE svg PUBLIC "-//W3C//DTD SVG 20010904//EN"
 "http://www.w3.org/TR/2001/REC-SVG-20010904/DTD/svg10.dtd">
<svg version="1.0" xmlns="http://www.w3.org/2000/svg"
 width="100.000000pt" height="100.000000pt" viewBox="0 0 100.000000 100.000000"
 preserveAspectRatio="xMidYMid meet">
<metadata>
Created by potrace 1.14, written by Peter Selinger 2001-2017
</metadata>
<g transform="translate(0.000000,100.000000) scale(0.100000,-0.100000)"
fill="#000000" stroke="none">
<path d="M455 794 c-46 -15 -74 -41 -91 -81 -33 -77 -8 -148 77 -228 29 -28
68 -64 86 -81 40 -38 45 -80 11 -93 -34 -12 -58 -1 -80 35 -11 19 -22 34 -25
34 -12 0 -89 -24 -96 -30 -10 -8 15 -67 43 -103 46 -58 99 -53 155 15 l26 33
-15 -32 c-9 -17 -28 -41 -42 -52 l-27 -21 44 0 c86 0 164 80 160 166 -2 65
-21 94 -109 171 -107 92 -132 138 -91 164 21 13 27 11 51 -13 20 -20 25 -20
67 -9 25 7 48 14 50 17 15 15 -66 114 -93 114 -3 0 -21 -14 -41 -31 -19 -17
-35 -27 -35 -22 0 6 9 18 20 28 37 33 19 41 -45 19z"/>
</g>
</svg>
