<svg width="25" height="25" viewBox="0 0 25 25" fill="none" xmlns="http://www.w3.org/2000/svg">
<g clip-path="url(#clip0_712_672)">
<path d="M17.6542 0.0790466C15.3542 -0.0282451 9.65728 -0.0230368 7.3552 0.0790466C5.33228 0.173838 3.54791 0.66238 2.10937 2.10092C-0.294799 4.50509 0.0124926 7.74467 0.0124926 12.4957C0.0124926 17.3582 -0.258341 20.5228 2.10937 22.8905C4.52291 25.303 7.80937 24.9874 12.5042 24.9874C17.3208 24.9874 18.9833 24.9905 20.6865 24.3311C23.0021 23.4322 24.75 21.3624 24.9208 17.6447C25.0292 15.3436 25.0229 9.6478 24.9208 7.34571C24.7146 2.95717 22.3594 0.295713 17.6542 0.0790466Z" fill="#060606"/>
<path d="M12.5 7.5C9.73693 7.5 7.5 9.73936 7.5 12.5C7.5 15.2631 9.73936 17.5 12.5 17.5C15.2631 17.5 17.5 15.2606 17.5 12.5C17.5 9.73693 15.2606 7.5 12.5 7.5Z" fill="#FAFAFA"/>
<path d="M19.173 7.32697C20.0009 7.32697 20.672 6.65586 20.672 5.82801C20.672 5.00016 20.0009 4.32906 19.173 4.32906C18.3452 4.32906 17.6741 5.00016 17.6741 5.82801C17.6741 6.65586 18.3452 7.32697 19.173 7.32697Z" fill="#FAFAFA"/>
</g>
<defs>
<clipPath id="clip0_712_672">
<rect width="25" height="25" fill="white"/>
</clipPath>
</defs>
</svg>
