<svg width="25" height="25" viewBox="0 0 25 25" fill="none" xmlns="http://www.w3.org/2000/svg">
<g clip-path="url(#clip0_712_685)">
<path d="M24.4469 6.17622L24.4782 6.38039C24.1761 5.30851 23.3605 4.48143 22.324 4.18039L22.3021 4.17518C20.3532 3.64601 12.5105 3.64601 12.5105 3.64601C12.5105 3.64601 4.68756 3.63559 2.71881 4.17518C1.66256 4.48143 0.845896 5.30851 0.549021 6.35851L0.543812 6.38039C-0.184313 10.1835 -0.189521 14.7533 0.576104 18.8252L0.543812 18.6189C0.845896 19.6908 1.66152 20.5179 2.69798 20.8189L2.71985 20.8241C4.66673 21.3543 12.5115 21.3543 12.5115 21.3543C12.5115 21.3543 20.3334 21.3543 22.3032 20.8241C23.3605 20.5179 24.1771 19.6908 24.474 18.6408L24.4792 18.6189C24.8105 16.8502 25.0001 14.8148 25.0001 12.7356C25.0001 12.6596 25.0001 12.5825 24.999 12.5054C25.0001 12.4346 25.0001 12.3502 25.0001 12.2658C25.0001 10.1856 24.8105 8.15018 24.4469 6.17622ZM10.0084 16.3033V8.70643L16.5355 12.5106L10.0084 16.3033Z" fill="black"/>
</g>
<defs>
<clipPath id="clip0_712_685">
<rect width="25" height="25" fill="white"/>
</clipPath>
</defs>
</svg>
