<svg width="25" height="25" viewBox="0 0 25 25" fill="none" xmlns="http://www.w3.org/2000/svg">
<g clip-path="url(#clip0_712_678)">
<path d="M22.4312 7.40936C23.4479 6.68748 24.3031 5.78644 25 4.74894V4.7479C24.0698 5.15519 23.0802 5.42603 22.0469 5.55728C23.1094 4.9229 23.9208 3.92603 24.3021 2.72498C23.3115 3.31561 22.2177 3.73228 21.0521 3.96561C20.1115 2.96353 18.7708 2.34373 17.3083 2.34373C14.4708 2.34373 12.1865 4.64686 12.1865 7.46978C12.1865 7.87603 12.2208 8.26665 12.3052 8.63853C8.04479 8.43019 4.27396 6.38853 1.74062 3.27707C1.29896 4.04478 1.03854 4.9229 1.03854 5.86769C1.03854 7.64269 1.95208 9.21561 3.31562 10.1271C2.49167 10.1114 1.68437 9.87186 1 9.49582V9.55207C1 12.0427 2.77604 14.1114 5.10625 14.5885C4.68854 14.7031 4.23438 14.7573 3.7625 14.7573C3.43437 14.7573 3.10312 14.7385 2.79271 14.6698C3.45625 16.6989 5.34167 18.1917 7.58125 18.2406C5.8375 19.6042 3.62292 20.426 1.22604 20.426C0.80625 20.426 0.403125 20.4073 0 20.3562C2.27083 21.8198 4.96042 22.6562 7.8625 22.6562C16.9073 22.6562 22.8021 15.1104 22.4312 7.40936Z" fill="#060606"/>
</g>
<defs>
<clipPath id="clip0_712_678">
<rect width="25" height="25" fill="white"/>
</clipPath>
</defs>
</svg>
