<svg width="24" height="24" viewBox="0 0 24 24" fill="none" xmlns="http://www.w3.org/2000/svg">
<g clip-path="url(#clip0_11_2564)">
<path d="M14.121 12L23.561 2.56099C23.8424 2.2796 24.0005 1.89794 24.0005 1.49999C24.0005 1.10204 23.8424 0.720387 23.561 0.438992C23.2796 0.157598 22.8979 -0.000488281 22.5 -0.000488281C22.102 -0.000488281 21.7204 0.157598 21.439 0.438992L12 9.87899L2.56099 0.438992C2.2796 0.157598 1.89794 -0.000488281 1.49999 -0.000488281C1.10204 -0.000488281 0.720387 0.157598 0.438992 0.438992C0.157598 0.720387 -0.000488281 1.10204 -0.000488281 1.49999C-0.000488281 1.89794 0.157598 2.2796 0.438992 2.56099L9.87899 12L0.438992 21.439C0.157598 21.7204 -0.000488281 22.102 -0.000488281 22.5C-0.000488281 22.8979 0.157598 23.2796 0.438992 23.561C0.720387 23.8424 1.10204 24.0005 1.49999 24.0005C1.89794 24.0005 2.2796 23.8424 2.56099 23.561L12 14.121L21.439 23.561C21.7204 23.8424 22.102 24.0005 22.5 24.0005C22.8979 24.0005 23.2796 23.8424 23.561 23.561C23.8424 23.2796 24.0005 22.8979 24.0005 22.5C24.0005 22.102 23.8424 21.7204 23.561 21.439L14.121 12Z" fill="white"/>
</g>
<defs>
<clipPath id="clip0_11_2564">
<rect width="24" height="24" fill="white"/>
</clipPath>
</defs>
</svg>
