<svg width="17" height="17" viewBox="0 0 17 17" fill="none" xmlns="http://www.w3.org/2000/svg">
<g clip-path="url(#clip0_968_1054)">
<path d="M16.7924 15.7909L12.5644 11.5629C13.7166 10.1537 14.2831 8.35559 14.1467 6.54047C14.0103 4.72534 13.1815 3.03207 11.8317 1.8109C10.4819 0.589724 8.7143 -0.0659227 6.89463 -0.0204251C5.07496 0.0250724 3.34238 0.768233 2.05528 2.05534C0.768172 3.34244 0.0250114 5.07502 -0.0204862 6.89469C-0.0659837 8.71437 0.589663 10.4819 1.81084 11.8317C3.03201 13.1816 4.72528 14.0104 6.54041 14.1468C8.35553 14.2831 10.1536 13.7166 11.5628 12.5644L15.7908 16.7925C15.9244 16.9215 16.1034 16.9929 16.2891 16.9913C16.4748 16.9897 16.6525 16.9152 16.7838 16.7839C16.9151 16.6525 16.9896 16.4749 16.9912 16.2891C16.9929 16.1034 16.9215 15.9245 16.7924 15.7909ZM7.0833 12.75C5.96254 12.75 4.86695 12.4177 3.93507 11.795C3.00319 11.1724 2.27688 10.2873 1.84798 9.2519C1.41909 8.21645 1.30687 7.07708 1.52552 5.97785C1.74417 4.87862 2.28386 3.86892 3.07636 3.07642C3.86886 2.28393 4.87856 1.74423 5.97779 1.52558C7.07701 1.30693 8.21639 1.41915 9.25184 1.84804C10.2873 2.27694 11.1723 3.00325 11.795 3.93513C12.4176 4.86701 12.75 5.9626 12.75 7.08336C12.7483 8.58574 12.1507 10.0261 11.0884 11.0884C10.026 12.1508 8.58568 12.7483 7.0833 12.75Z" fill="white"/>
</g>
<defs>
<clipPath id="clip0_968_1054">
<rect width="17" height="17" fill="white"/>
</clipPath>
</defs>
</svg>
