<svg width="129" height="28" viewBox="0 0 129 28" fill="none" xmlns="http://www.w3.org/2000/svg">
<path d="M14.2631 5.42822C13.3442 2.734 11.8764 1.03547 9.85975 0.332627C7.74102 1.56911 6.34981 3.34573 5.68611 5.6625C5.85203 3.37176 6.79014 1.49752 8.50044 0.0397765C8.30899 0.0137454 8.12392 0.000729845 7.94524 0.000729845C5.9669 -0.0253013 4.28213 0.645 2.89092 2.01163C1.48694 3.37827 0.784951 5.0768 0.784951 7.10723C0.784951 9.07258 1.58267 10.9989 3.17809 12.8861C3.86732 13.7061 5.3734 15.1053 7.69635 17.0837C9.12585 18.3201 9.96824 19.2898 10.2235 19.9926C10.466 20.6564 10.3894 21.2942 9.99377 21.9059C9.5981 22.5307 9.04927 22.8496 8.34728 22.8626C6.79014 22.9016 5.57762 21.6912 4.70971 19.2312L0 20.676C0.85515 24.1251 2.55907 26.3768 5.11175 27.431C6.29875 27.0406 7.40917 26.2726 8.44301 25.1273C9.51514 23.9559 10.198 22.7259 10.4915 21.4374C10.2235 24.1706 8.97269 26.3247 6.73909 27.8996C7.2241 27.9777 7.71549 28.0102 8.21327 27.9972C10.5107 27.9191 12.4061 26.9429 13.8994 25.0687C15.4693 23.0903 15.9415 20.8386 15.3161 18.3136C15.0608 17.3114 14.3972 16.2376 13.325 15.0923C12.6869 14.4285 11.5956 13.4393 10.0512 12.1247C8.55788 10.8882 7.53681 9.95764 6.98798 9.33289C6.09454 8.31768 5.66058 7.40659 5.68611 6.59962C5.68611 6.10503 5.85203 5.68853 6.18388 5.35013C6.4902 5.01172 6.86673 4.81649 7.31345 4.76443C7.78569 4.72538 8.22603 4.84903 8.63446 5.13537C9.08118 5.47377 9.41941 5.98789 9.64915 6.67771C10.0065 6.62565 11.5445 6.20915 14.2631 5.42822Z" fill="white"/>
<path d="M25.329 0.000729845C27.4733 0.0397765 29.3048 0.840234 30.8237 2.4021C32.3425 3.97698 33.102 5.86424 33.102 8.06387V10.8752C33.102 13.1009 32.3298 15.0012 30.7854 16.576C29.241 18.1509 27.3776 18.9384 25.195 18.9384H23.3188V27.9972H18.3028V0.000729845H23.5868C24.5441 0.573415 25.4439 1.46498 26.2863 2.67543C27.1287 3.89889 27.6392 5.06378 27.8179 6.17011C27.6903 3.77524 26.8606 1.71878 25.329 0.000729845ZM28.0859 8.06387C28.0859 7.24389 27.8051 6.54756 27.2435 5.97487C26.6692 5.40219 25.9863 5.11585 25.195 5.11585H23.3188V18.7041L24.0463 13.8233H25.195C25.9863 13.8233 26.6692 13.5369 27.2435 12.9642C27.8051 12.3915 28.0859 11.6952 28.0859 10.8752V8.06387Z" fill="white"/>
<path d="M43.3063 0.000729845C45.2591 0.000729845 46.9311 0.710078 48.3223 2.12877C49.7136 3.53446 50.4092 5.23949 50.4092 7.24389V20.754C50.4092 22.7584 49.7136 24.4635 48.3223 25.8692C46.9311 27.2879 45.2591 27.9972 43.3063 27.9972C41.3408 27.9972 39.6624 27.2879 38.2711 25.8692C36.8799 24.4635 36.1843 22.7584 36.1843 20.754V7.24389C36.1843 5.23949 36.8799 3.53446 38.2711 2.12877C39.6624 0.710078 41.3408 0.000729845 43.3063 0.000729845ZM45.3931 7.24389C45.3931 6.65819 45.1889 6.15709 44.7805 5.74059C44.3721 5.3241 43.8807 5.11585 43.3063 5.11585C43.1532 5.11585 43.0128 5.12886 42.8851 5.15489C43.1659 4.41301 43.7084 3.6516 44.5125 2.87066C45.3421 2.07671 46.1653 1.52355 46.9822 1.21118C45.6165 1.32832 44.3338 1.97259 43.134 3.14399C41.8577 4.38047 41.2131 5.7471 41.2004 7.24389V20.754C41.2004 21.3397 41.4046 21.8408 41.813 22.2573C42.2214 22.6738 42.7192 22.8821 43.3063 22.8821C43.4467 22.8821 43.5807 22.8691 43.7084 22.843C43.4276 23.5849 42.8851 24.3463 42.081 25.1273C41.2514 25.9212 40.4282 26.4744 39.6113 26.7868C40.977 26.6696 42.2597 26.0254 43.4595 24.854C44.7358 23.6175 45.3804 22.2508 45.3931 20.754V7.24389Z" fill="white"/>
<path d="M68.3099 10.8752C68.3099 12.6844 67.6589 14.4415 66.3571 16.1465C65.0935 17.8255 63.6002 18.9384 61.8771 19.485C63.4087 19.2247 64.7808 18.6585 65.9933 17.7865C66.0954 17.7084 66.1975 17.6238 66.2996 17.5327C66.8357 18.4438 67.1739 19.4265 67.3143 20.4807L68.3099 27.9972H63.3321L62.3175 20.8126C62.1771 20.1749 61.858 19.6542 61.3602 19.2507C60.8497 18.8343 60.2625 18.626 59.5988 18.626H58.5076V27.9972H53.4915V0.000729845H58.7756C59.7456 0.573415 60.6454 1.46498 61.4751 2.67543C62.3302 3.89889 62.8471 5.06378 63.0258 6.17011C62.8854 3.77524 62.0494 1.71878 60.5178 0.000729845C62.6748 0.0397765 64.5128 0.840234 66.0316 2.4021C67.5505 3.97698 68.3099 5.86424 68.3099 8.06387V10.8752ZM58.5076 13.8233H60.3838C61.1879 13.8233 61.8707 13.5369 62.4323 12.9642C63.0067 12.3915 63.2939 11.6952 63.2939 10.8752V8.06387C63.2939 7.24389 63.0067 6.54756 62.4323 5.97487C61.8707 5.40219 61.1879 5.11585 60.3838 5.11585H58.5076V13.8233Z" fill="white"/>
<path d="M85.0619 0.000729845V5.11585H80.7159V27.9972H75.7191V5.85773L78.8971 5.11585H71.3731V0.000729845H85.0619Z" fill="white"/>
<path d="M88.1442 0.000729845H93.1603V27.9972H88.1442V0.000729845Z" fill="white"/>
<path d="M109.644 0.000729845V5.09632H101.737C100.053 5.05728 98.7124 5.61044 97.7168 6.75581C97.0148 7.57579 96.5171 8.64957 96.2235 9.97716V5.44774C96.2235 3.93794 96.7468 2.65591 97.7934 1.60164C98.8272 0.534368 100.084 0.000729845 101.565 0.000729845H109.644ZM101.24 6.11154V10.641H107.251V15.7561H101.24V27.9972H96.2235V10.68C96.5681 9.46955 97.1552 8.43482 97.9849 7.57579C98.8911 6.63867 99.8802 6.15058 100.952 6.11154H101.24Z" fill="white"/>
<path d="M116.881 0.000729845H111.386L117.685 14.7604V27.9972H122.701V14.7604L129 0.000729845H123.524L118.374 12.1052L119.772 6.67771L116.881 0.000729845Z" fill="white"/>
</svg>
